<?xml version="1.0" encoding="UTF-8"?>
<svg id="Layer_1" data-name="Layer 1" xmlns="http://www.w3.org/2000/svg" viewBox="0 0 90.9 109.67">
  <defs>
    <style>
      .cls-1 {
        fill: #f4f1ec;
      }

      .cls-2 {
        fill: #2b3630;
      }
    </style>
  </defs>
  <g>
    <circle class="cls-2" cx="45.45" cy="45.45" r="45.45"/>
    <rect class="cls-2" x="23.2" y="55.94" width="44.5" height="44.5" transform="translate(-41.98 55.04) rotate(-45)"/>
  </g>
  <g>
    <path class="cls-1" d="M48.92,29.32h8.78c.35,0,.64.31.68.61l.02,3.13c0,.32-.15.67-.36.92-.26,3.1-.64,6.14-1.36,9.2-1.04,4.03-2.28,7.18-4.86,10.5l9.34.03c.21,0,.54.12.64.24.12.14.21.57.14.77l-2.75,7.77c-.32.58-.92.83-1.62.83l-10.8.02.27,16.27c-1.09.11-1.94.1-3.1.05l.18-16.31h-10.94c-.61-.01-1.15-.3-1.46-.76l-2.77-7.86c-.06-.15,0-.58.08-.71.11-.15.44-.31.69-.31l9.27-.03c-3.07-3.99-4.35-8.1-5.35-12.95-.35-2.25-.6-4.51-.77-6.74-.12-.15-.4-.47-.4-.63v-3.3c0-.41.28-.75.7-.75h11.59M46.12,29.32h2.8M46.12,28.62v.7M44.78,30.62l-.02-9.3c0-.43.19-.77.52-.81.52-.07.86.18.86.66v9.46M44.76,29.32v-.7M41.24,53.58c-.97-1.73-1.63-3.37-2.13-5.26-1.24-4.68-1.74-9.4-1.75-14.28l-3.32-.02c.35,6.53,1.89,14.59,6.43,19.59l.77-.03ZM41.5,34.03h-3.03c-.01,4.5.5,8.8,1.49,13.14.53,2.31,1.35,4.42,2.55,6.44l.9-.04c-1.85-6.37-1.86-13.04-1.91-19.54ZM44.15,52.24l.1-18.21h-1.66c-.03,2.99.03,5.82.2,8.8.28,3.21.52,6.37,1.36,9.42h0ZM47.82,46.37c.41-4.13.57-8.15.55-12.33h-1.72l.07,18.5c.65-2.03.81-4.06,1.09-6.18ZM48.48,53.54c1.46-2.4,2.24-4.89,2.79-7.56.82-3.95,1.12-7.86,1.18-11.93h-2.99c0,4.95-.2,9.84-.88,14.78-.23,1.68-.61,3.17-1.1,4.78.28.05.79.05,1-.06h0ZM50.43,53.53c4.57-5.06,6.02-12.96,6.44-19.5h-3.3c-.2,6.3-.77,14.05-3.89,19.55.12.06.62.1.75-.06h0ZM44.06,54.79l-.74.06.77,1.02-.04-1.08h0ZM36.67,58.02l-.9-3.14h-5.46s1.15,3.14,1.15,3.14h5.2ZM44.05,57.07c-1.64-.32-2.89-1.05-3.86-2.19h-3.34s.84,3.16.84,3.16l6.41.06c.02-.37.01-.77-.05-1.02h0ZM47.58,54.88l-.75-.05-.03.99.79-.93h0ZM53.21,58.05l.89-3.14-3.32-.03c-1.08,1.12-2.4,1.83-4,2.16l.02,1.05,6.4-.04h0ZM59.46,58.02l1.09-3.12h-5.42l-.9,3.12h5.22ZM37.72,61.73l-.68-2.52h-5.17s.95,2.51.95,2.51l4.89.02h0ZM44.14,61.73l-.02-2.52h-6.09l.63,2.54s5.47-.01,5.47-.01ZM52.27,61.74l.62-2.53h-6.13s0,2.52,0,2.52h5.51ZM58.27,61.21l.69-2h-5.11l-.67,2.52h4.56c.18,0,.46-.33.53-.52h0Z"/>
    <path class="cls-1" d="M46.66,28.99h12.57c.32,0,.57.26.57.57v4.33c0,.32-.26.57-.57.57h-27.26c-.32,0-.57-.26-.57-.58v-4.33c0-.32.26-.57.57-.57h14.69"/>
    <polygon class="cls-1" points="54.49 22.72 45.46 25.64 45.43 20.5 54.49 22.72"/>
  </g>
</svg>