<?xml version="1.0" encoding="UTF-8"?>
<svg id="Layer_1" xmlns="http://www.w3.org/2000/svg" xmlns:xlink="http://www.w3.org/1999/xlink" version="1.1" viewBox="330 220 1815 1815">
  <!-- Generator: Adobe Illustrator 30.2.1, SVG Export Plug-In . SVG Version: 2.1.1 Build 1)  -->
  <defs>
    <style>
      .st0 {
        fill: url(#linear-gradient2);
      }

      .st1 {
        fill: url(#linear-gradient1);
      }

      .st2 {
        fill: url(#linear-gradient3);
      }

      .st3 {
        fill: url(#linear-gradient);
      }
    </style>
    <linearGradient id="linear-gradient" x1="1236.85" y1="2014.46" x2="1236.85" y2="241.84" gradientUnits="userSpaceOnUse">
      <stop offset="0" stop-color="#043116"/>
      <stop offset="1" stop-color="#195730"/>
    </linearGradient>
    <linearGradient id="linear-gradient1" x1="1164.75" y1="5048.2" x2="1164.75" y2="6093.38" gradientTransform="translate(0 6652) scale(1 -1)" gradientUnits="userSpaceOnUse">
      <stop offset="0" stop-color="#e9e5e1"/>
      <stop offset="1" stop-color="#fefefe"/>
    </linearGradient>
    <linearGradient id="linear-gradient2" x1="1138.48" y1="5301.97" x2="1766.54" y2="5301.97" gradientTransform="translate(-8.54 6638.55) rotate(-2.18) scale(1 -1)" gradientUnits="userSpaceOnUse">
      <stop offset="0" stop-color="#d9a200"/>
      <stop offset="1" stop-color="#d59f01"/>
    </linearGradient>
    <linearGradient id="linear-gradient3" x1="952.65" y1="2856.72" x2="952.65" y2="3328.3" gradientTransform="translate(4.06 4484.82) scale(1 -1)" gradientUnits="userSpaceOnUse">
      <stop offset="0" stop-color="#e9e5e1"/>
      <stop offset="1" stop-color="#fefefe"/>
    </linearGradient>
  </defs>
  <circle class="st3" cx="1236.85" cy="1128.15" r="886.31"/>
  <path class="st1" d="M577.58,963.47c247.26-103.33,754.64-363.89,899.5-207.4,5.64,6.09,13.29,28.38,12.29,36.95-19.54,168-390.53,404.85-294.62,139.77.29-4.63-1.85-8.43-6.51-9.3-56.85-1.05-177.73.52-224.81,1.04-8.89,1.14-6.97,12.18-6.16,19.77,58.3,312.43,367.77,597.89,666.2,659.5,60.33-10.92,96.51-82.07,126.42-136.27,8.58-18.92-12.29-16.8-24.75-17.39-173.27-8.17-344.08-126.32-444.69-266.19-.02-7.26,6.96-12.69,12.99-16.53,1084-421.3-42.94-985.74-677.01-258.06"/>
  <path class="st0" d="M1568.55,1628.1c-339.64-1.53-671.91-332.8-652.27-685.94,64.85,340.3,337.56,587.59,652.27,685.94Z"/>
  <path class="st2" d="M1043.03,1627.99l-205.09.11,44.71-276.34,33.01-195.24c25.35,106.58,78.14,203.86,159.8,285.47l-32.44,185.98h0Z"/>
</svg>