<?xml version="1.0" encoding="UTF-8"?>
<svg id="Layer_1" xmlns="http://www.w3.org/2000/svg" xmlns:xlink="http://www.w3.org/1999/xlink" version="1.1" viewBox="0 0 2451.32 2323.73">
  <!-- Generator: Adobe Illustrator 30.2.1, SVG Export Plug-In . SVG Version: 2.1.1 Build 1)  -->
  <defs>
    <style>
      .st0 {
        fill: url(#linear-gradient2);
      }

      .st1 {
        fill: url(#linear-gradient1);
      }

      .st2 {
        fill: url(#linear-gradient3);
      }

      .st3 {
        fill: url(#linear-gradient);
      }
    </style>
    <linearGradient id="linear-gradient" x1="1236.85" y1="309.54" x2="1236.85" y2="2082.16" gradientTransform="translate(0 2324) scale(1 -1)" gradientUnits="userSpaceOnUse">
      <stop offset="0" stop-color="#043116"/>
      <stop offset="1" stop-color="#195730"/>
    </linearGradient>
    <linearGradient id="linear-gradient1" x1="1164.74" y1="-4888.2" x2="1164.74" y2="-5933.39" gradientTransform="translate(0 6492)" gradientUnits="userSpaceOnUse">
      <stop offset="0" stop-color="#e9e5e1"/>
      <stop offset="1" stop-color="#fefefe"/>
    </linearGradient>
    <linearGradient id="linear-gradient2" x1="1180.46" y1="-5184.77" x2="1808.53" y2="-5184.77" gradientTransform="translate(-54.96 6523.04) rotate(-2.18)" gradientUnits="userSpaceOnUse">
      <stop offset="0" stop-color="#d9a200"/>
      <stop offset="1" stop-color="#d59f01"/>
    </linearGradient>
    <linearGradient id="linear-gradient3" x1="571.46" y1="3030.92" x2="571.46" y2="3673.69" gradientTransform="translate(81.07 4434.68) rotate(4.84) scale(1 -.94)" xlink:href="#linear-gradient1"/>
  </defs>
  <circle class="st3" cx="1236.85" cy="1128.15" r="886.31"/>
  <path class="st1" d="M577.58,963.47c247.26-103.33,754.64-363.89,899.5-207.4,5.64,6.09,13.29,28.38,12.29,36.95-19.54,168-390.53,404.85-294.62,139.77.29-4.63-1.85-8.43-6.51-9.3-56.85-1.05-177.73.52-224.81,1.04-8.89,1.14-6.97,12.18-6.16,19.77,58.3,312.43,367.77,597.89,666.2,659.5,60.33-10.92,96.51-82.07,126.42-136.27,8.58-18.92-12.29-16.8-24.75-17.39-173.27-8.17-344.08-126.32-444.69-266.19-.02-7.26,6.96-12.69,12.99-16.53,1084-421.3-42.94-985.74-677.01-258.06"/>
  <path class="st0" d="M1568.55,1628.1c-339.64-1.53-671.91-332.8-652.27-685.94,64.85,340.3,337.56,587.59,652.27,685.94Z"/>
  <path class="st2" d="M948.39,1646.79l-160.6-15.12c-22.28-2.1-37.69-24.82-32.37-47.76l70.8-305.37,58.92-246.49c20.39,139.54,74.93,270.3,165.98,384.31l-45.95,188.12c-6.58,26.94-30.53,44.78-56.79,42.31h0Z"/>
</svg>