<?xml version="1.0" encoding="UTF-8"?>
<svg id="Layer_1" xmlns="http://www.w3.org/2000/svg" xmlns:xlink="http://www.w3.org/1999/xlink" version="1.1" viewBox="0 0 2451.32 2323.73">
  <!-- Generator: Adobe Illustrator 30.2.1, SVG Export Plug-In . SVG Version: 2.1.1 Build 1)  -->
  <defs>
    <style>
      .st0 {
        fill: url(#linear-gradient2);
      }

      .st1 {
        fill: url(#linear-gradient1);
      }

      .st2 {
        fill: url(#linear-gradient);
      }
    </style>
    <linearGradient id="linear-gradient" x1="1225.66" y1="-2472.67" x2="1225.66" y2="-3892.61" gradientTransform="translate(0 4328)" gradientUnits="userSpaceOnUse">
      <stop offset="0" stop-color="#e9e5e1"/>
      <stop offset="1" stop-color="#fefefe"/>
    </linearGradient>
    <linearGradient id="linear-gradient1" x1="1066.94" y1="-2794.62" x2="1920.2" y2="-2794.62" gradientTransform="translate(-56.61 4271.86) rotate(-2.18)" gradientUnits="userSpaceOnUse">
      <stop offset="0" stop-color="#d9a200"/>
      <stop offset="1" stop-color="#d59f01"/>
    </linearGradient>
    <linearGradient id="linear-gradient2" x1="938.97" y1="-272.48" x2="938.97" y2="-913.14" gradientTransform="translate(4.06 2160.82)" gradientUnits="userSpaceOnUse">
      <stop offset="0" stop-color="#e9e5e1"/>
      <stop offset="1" stop-color="#fefefe"/>
    </linearGradient>
  </defs>
  <path class="st2" d="M427.96,985.41c335.91-140.38,1025.22-494.36,1222.02-281.76,7.66,8.27,18.05,38.56,16.7,50.2-26.55,228.23-530.55,550.01-400.25,189.88.39-6.29-2.51-11.45-8.84-12.64-77.23-1.42-241.46.71-305.42,1.41-12.08,1.55-9.47,16.55-8.37,26.86,79.2,424.45,499.63,812.26,905.07,895.97,81.96-14.83,131.11-111.5,171.75-185.13,11.65-25.71-16.7-22.82-33.63-23.62-235.39-11.1-467.45-171.61-604.14-361.63-.03-9.86,9.45-17.24,17.65-22.46,1472.67-572.36-58.33-1339.18-919.75-350.59"/>
  <path class="st1" d="M1774.25,1888.34c-461.42-2.08-912.83-452.12-886.14-931.89,88.1,462.32,458.59,798.27,886.14,931.89Z"/>
  <path class="st0" d="M1060.3,1888.19l-278.62.15,60.74-375.42,44.85-265.24c34.44,144.8,106.16,276.95,217.1,387.83l-44.07,252.67h0Z"/>
</svg>