<?xml version="1.0" encoding="UTF-8"?>
<svg id="Layer_1" data-name="Layer 1" xmlns="http://www.w3.org/2000/svg" viewBox="0 0 145.17 40.87">
  <defs>
    <style>
      .cls-1 {
        font-family: Sora-Bold, Sora;
        font-size: 28.1px;
        font-variation-settings: 'wght' 700;
        font-weight: 700;
        letter-spacing: -.03em;
        fill: #F5EDE1;
      }

      .cls-2 {
        fill: #F6C165;
      }
    </style>
  </defs>
  <path class="cls-2" d="M20.44,0C9.15,0,0,9.15,0,20.44s9.15,20.44,20.44,20.44,20.44-9.15,20.44-20.44S31.72,0,20.44,0ZM16.18,31.04h-4.26c-.06,0-.1-.05-.09-.11l.94-5.78.63-3.72c.02-.1.16-.11.19,0,.57,2.09,1.65,4,3.26,5.62.02.02.03.05.03.08l-.68,3.92h0ZM13.48,16.41c1.38,7.26,7.2,12.53,13.91,14.63-7.24-.03-14.33-7.1-13.91-14.63ZM31.25,27.61c-.64,1.16-1.41,2.67-2.7,2.91-6.36-1.31-12.96-7.4-14.21-14.06-.02-.16-.06-.4.13-.42,1-.01,3.58-.04,4.79-.02.1.02.14.1.14.2-2.05,5.65,5.87.6,6.28-2.98.02-.18-.14-.66-.26-.79-3.09-3.34-13.91,2.22-19.18,4.42l.83-1.15c13.52-15.52,37.55-3.48,14.44,5.5-.13.08-.28.2-.28.35,2.15,2.98,5.79,5.5,9.48,5.68.27.01.71-.03.53.37Z"/>
  <text class="cls-1" transform="translate(45.8 29.63)"><tspan x="0" y="0">Radius</tspan></text>
</svg>